<svg xmlns="http://www.w3.org/2000/svg" viewBox="100 100 200 200" xml:space="preserve"><g transform="matrix(.2 0 0 .2 200 200)"><linearGradient id="a" gradientUnits="userSpaceOnUse" x1="146.446" y1="853.553" x2="853.553" y2="146.446"><stop offset="0%" style="stop-color:#ffd521;stop-opacity:1"/><stop offset="5.51%" style="stop-color:#ffd020;stop-opacity:1"/><stop offset="12.41%" style="stop-color:#fec01e;stop-opacity:1"/><stop offset="20.04%" style="stop-color:#fca71b;stop-opacity:1"/><stop offset="28.21%" style="stop-color:#fa8316;stop-opacity:1"/><stop offset="36.81%" style="stop-color:#f85510;stop-opacity:1"/><stop offset="45.63%" style="stop-color:#f51e09;stop-opacity:1"/><stop offset="50%" style="stop-color:#f30005;stop-opacity:1"/><stop offset="50.35%" style="stop-color:#f20007;stop-opacity:1"/><stop offset="59.66%" style="stop-color:#e1003b;stop-opacity:1"/><stop offset="68.79%" style="stop-color:#d30067;stop-opacity:1"/><stop offset="77.57%" style="stop-color:#c70088;stop-opacity:1"/><stop offset="85.89%" style="stop-color:#bf00a0;stop-opacity:1"/><stop offset="93.57%" style="stop-color:#bb00af;stop-opacity:1"/><stop offset="100%" style="stop-color:#b900b4;stop-opacity:1"/></linearGradient><path style="stroke:none;stroke-width:1;stroke-dasharray:none;stroke-linecap:butt;stroke-dashoffset:0;stroke-linejoin:miter;stroke-miterlimit:4;fill:url(#a);fill-rule:nonzero;opacity:1" transform="translate(-500 -500)" d="M500 1000C223.9 1000 0 776.1 0 500S223.9 0 500 0s500 223.9 500 500-223.9 500-500 500z"/></g><path style="stroke:none;stroke-width:1;stroke-dasharray:none;stroke-linecap:butt;stroke-dashoffset:0;stroke-linejoin:miter;stroke-miterlimit:4;fill:#fff;fill-rule:nonzero;opacity:1" transform="matrix(.2 0 0 .2 100 100)" d="M500 220.2c91.1 0 101.9.3 137.9 2 33.3 1.5 51.4 7.1 63.4 11.8 15.9 6.2 27.3 13.6 39.2 25.5 11.9 11.9 19.3 23.3 25.5 39.2 4.7 12 10.2 30.1 11.8 63.4 1.6 36 2 46.8 2 137.9s-.3 101.9-2 137.9c-1.5 33.3-7.1 51.4-11.8 63.4-6.2 15.9-13.6 27.3-25.5 39.2-11.9 11.9-23.3 19.3-39.2 25.5-12 4.7-30.1 10.2-63.4 11.8-36 1.6-46.8 2-137.9 2s-101.9-.3-137.9-2c-33.3-1.5-51.4-7.1-63.4-11.8-15.9-6.2-27.3-13.6-39.2-25.5-11.9-11.9-19.3-23.3-25.5-39.2-4.7-12-10.2-30.1-11.8-63.4-1.6-36-2-46.8-2-137.9s.3-101.9 2-137.9c1.5-33.3 7.1-51.4 11.8-63.4 6.2-15.9 13.6-27.3 25.5-39.2 11.9-11.9 23.3-19.3 39.2-25.5 12-4.7 30.1-10.2 63.4-11.8 36-1.7 46.8-2 137.9-2m0-61.5c-92.7 0-104.3.4-140.7 2.1-36.3 1.7-61.1 7.4-82.9 15.9C254 185.3 234.9 197 216 216c-19 19-30.6 38-39.4 60.5-8.4 21.7-14.2 46.5-15.9 82.9-1.7 36.4-2.1 48-2.1 140.7 0 92.7.4 104.3 2.1 140.7 1.7 36.3 7.4 61.1 15.9 82.9C185.3 746 197 765.1 216 784c19 19 38 30.6 60.5 39.4 21.7 8.4 46.5 14.2 82.9 15.9 36.4 1.7 48 2.1 140.7 2.1s104.3-.4 140.7-2.1c36.3-1.7 61.1-7.4 82.9-15.9C746 814.7 765.1 803 784 784c19-19 30.6-38 39.4-60.5 8.4-21.7 14.2-46.5 15.9-82.9 1.7-36.4 2.1-48 2.1-140.7s-.4-104.3-2.1-140.7c-1.7-36.3-7.4-61.1-15.9-82.9C814.7 254 803 234.9 784 216c-19-19-38-30.6-60.5-39.4-21.7-8.4-46.5-14.2-82.9-15.9-36.3-1.6-47.9-2-140.6-2z"/><path style="stroke:none;stroke-width:1;stroke-dasharray:none;stroke-linecap:butt;stroke-dashoffset:0;stroke-linejoin:miter;stroke-miterlimit:4;fill:#fff;fill-rule:nonzero;opacity:1" transform="matrix(.2 0 0 .2 100 100)" d="M500 324.7c-96.8 0-175.3 78.5-175.3 175.3S403.2 675.3 500 675.3 675.3 596.8 675.3 500 596.8 324.7 500 324.7zm0 289.1c-62.8 0-113.8-50.9-113.8-113.8s51-113.8 113.8-113.8S613.8 437.1 613.8 500s-51 113.8-113.8 113.8z"/><circle style="stroke:none;stroke-width:1;stroke-dasharray:none;stroke-linecap:butt;stroke-dashoffset:0;stroke-linejoin:miter;stroke-miterlimit:4;fill:#fff;fill-rule:nonzero;opacity:1" r="41" transform="matrix(.2 0 0 .2 236.44 163.56)"/></svg>